Newsreader-SemiBoldItalic.ufo
<glyph name="asterisk" format="2">
  <advance width="849.032"/>
  <unicode hex="002A"/>
  <outline>
    <contour>
      <point x="760.968" y="718.696" type="line"/>
      <point x="689.664" y="965.184" type="line"/>
      <point x="942.728" y="1014.032" type="line"/>
      <point x="937.032" y="1081.208" type="line"/>
      <point x="679.816" y="1088.784" type="line"/>
      <point x="713.544" y="1344.848" type="line"/>
      <point x="648.792" y="1359.968" type="line"/>
      <point x="561.064" y="1118.328" type="line"/>
      <point x="328.152" y="1228.936" type="line"/>
      <point x="292.912" y="1172.032" type="line"/>
      <point x="495.552" y="1013.424" type="line"/>
      <point x="318.368" y="826.664" type="line"/>
      <point x="361.576" y="775.456" type="line"/>
      <point x="575.336" y="918.368" type="line"/>
      <point x="698.64" y="691.88" type="line"/>
    </contour>
  </outline>
</glyph>
<glyph name="O" format="2">
  <advance width="1501.472"/>
  <unicode hex="004F"/>
  <anchor x="996.768" y="1340.0" name="UCtop"/>
  <anchor x="633.0" y="0.0" name="bottom"/>
  <anchor x="691.3679999999999" y="0.0" name="right"/>
  <anchor x="1212.96" y="1340.0" name="horn"/>
  <outline>
    <contour>
      <point x="387.6" y="444.968" type="curve" smooth="yes"/>
      <point x="387.6" y="858.3829239766083"/>
      <point x="642.312" y="1257.192"/>
      <point x="959.408" y="1257.192" type="curve" smooth="yes"/>
      <point x="1151.496" y="1257.192"/>
      <point x="1259.176" y="1140.416"/>
      <point x="1259.176" y="895.032" type="curve" smooth="yes"/>
      <point x="1259.176" y="481.808"/>
      <point x="1004.464" y="82.80799999999999"/>
      <point x="687.368" y="82.80799999999999" type="curve" smooth="yes"/>
      <point x="495.28" y="82.80799999999999"/>
      <point x="387.6" y="199.69906319702602"/>
    </contour>
    <contour>
      <point x="1501.312" y="826.904" type="curve" smooth="yes"/>
      <point x="1501.312" y="1166.632"/>
      <point x="1300.28" y="1364.24"/>
      <point x="957.2" y="1364.24" type="curve" smooth="yes"/>
      <point x="491.064" y="1364.24"/>
      <point x="145.464" y="966.032"/>
      <point x="145.464" y="513.096" type="curve" smooth="yes"/>
      <point x="145.464" y="173.368"/>
      <point x="346.496" y="-24.240000000000002"/>
      <point x="689.576" y="-24.240000000000002" type="curve" smooth="yes"/>
      <point x="1155.712" y="-24.240000000000002"/>
      <point x="1501.312" y="373.968"/>
    </contour>
  </outline>
</glyph>
<glyph name="P" format="2">
  <advance width="1213.416"/>
  <unicode hex="0050"/>
  <anchor x="877.44" y="1340.0" name="UCtop"/>
  <anchor x="209.288" y="0.0" name="bottom"/>
  <outline>
    <contour>
      <point x="739.408" y="674.576" type="curve" smooth="yes"/>
      <point x="368.432" y="674.576" type="line"/>
      <point x="341.408" y="569.616" type="line"/>
      <point x="731.152" y="569.616" type="line" smooth="yes"/>
      <point x="1126.92" y="569.616"/>
      <point x="1337.168" y="766.52"/>
      <point x="1337.168" y="1035.552" type="curve" smooth="yes"/>
      <point x="1337.168" y="1204.368"/>
      <point x="1219.016" y="1340.0"/>
      <point x="902.0" y="1340.0" type="curve" smooth="yes"/>
      <point x="578.496" y="1340.0" type="line"/>
      <point x="536.496" y="1235.04" type="line"/>
      <point x="843.288" y="1235.04" type="line" smooth="yes"/>
      <point x="1019.24" y="1235.04"/>
      <point x="1093.064" y="1158.704"/>
      <point x="1093.064" y="1026.816" type="curve" smooth="yes"/>
      <point x="1093.064" y="811.72"/>
      <point x="965.048" y="674.576"/>
    </contour>
    <contour>
      <point x="362.23199999999997" y="88.936" type="line"/>
      <point x="743.232" y="1340.0" type="line"/>
      <point x="354.432" y="1340.0" type="line"/>
      <point x="342.008" y="1299.456" type="line"/>
      <point x="471.68" y="1251.064" type="line"/>
      <point x="119.224" y="93.208" type="line"/>
      <point x="-36.84" y="40.544" type="line"/>
      <point x="-49.263999999999996" y="0.0" type="line"/>
      <point x="479.48" y="0.0" type="line"/>
      <point x="491.904" y="40.544" type="line"/>
    </contour>
  </outline>
</glyph>
<glyph name="Q" format="2">
  <advance width="1494.656"/>
  <unicode hex="0051"/>
  <anchor x="994.648" y="1340.0" name="UCtop"/>
  <anchor x="520.408" y="-153.344" name="bottom"/>
  <outline>
    <contour>
      <point x="683.768" y="-225.68" type="line" smooth="yes"/>
      <point x="830.16" y="-353.128"/>
      <point x="904.816" y="-395.968"/>
      <point x="1080.544" y="-395.968" type="curve" smooth="yes"/>
      <point x="1196.048" y="-395.968"/>
      <point x="1268.616" y="-380.272"/>
      <point x="1355.616" y="-353.816" type="curve"/>
      <point x="1372.824" y="-297.344" type="line"/>
      <point x="1226.224" y="-312.528"/>
      <point x="1158.368" y="-289.296"/>
      <point x="979.152" y="-173.168" type="curve" smooth="yes"/>
      <point x="619.336" y="58.688" type="line"/>
      <point x="669.336" y="-1.7599999999999998" type="line"/>
      <point x="1152.664" y="-45.824"/>
      <point x="1497.496" y="398.312"/>
      <point x="1497.496" y="829.448" type="curve" smooth="yes"/>
      <point x="1497.496" y="1164.936"/>
      <point x="1293.496" y="1364.24"/>
      <point x="951.688" y="1364.24" type="curve" smooth="yes"/>
      <point x="496.152" y="1364.24"/>
      <point x="145.04" y="966.456"/>
      <point x="145.04" y="510.552" type="curve" smooth="yes"/>
      <point x="145.04" y="320.12"/>
      <point x="208.952" y="183.36"/>
      <point x="322.048" y="85.632" type="curve" smooth="yes"/>
    </contour>
    <contour>
      <point x="394.384" y="460.23199999999997" type="curve" smooth="yes"/>
      <point x="394.384" y="876.7615228677379"/>
      <point x="640.616" y="1256.768"/>
      <point x="948.384" y="1256.768" type="curve" smooth="yes"/>
      <point x="1137.928" y="1256.768"/>
      <point x="1248.152" y="1131.928813559322"/>
      <point x="1248.152" y="879.768" type="curve" smooth="yes"/>
      <point x="1248.152" y="463.23847713226206"/>
      <point x="1001.92" y="83.232"/>
      <point x="694.152" y="83.232" type="curve" smooth="yes"/>
      <point x="504.608" y="83.232"/>
      <point x="394.384" y="208.07118644067796"/>
    </contour>
  </outline>
</glyph>
<glyph name="s" format="2">
  <advance width="701.664"/>
  <unicode hex="0073"/>
  <anchor x="450.352" y="860.48" name="top"/>
  <anchor x="261.728" y="0.0" name="bottom"/>
  <outline>
    <contour>
      <point x="96.056" y="215.992" type="curve" smooth="yes"/>
      <point x="36.576" y="215.992"/>
      <point x="-7.327999999999999" y="174.328"/>
      <point x="-7.327999999999999" y="118.576" type="curve" smooth="yes"/>
      <point x="-7.327999999999999" y="42.912"/>
      <point x="66.032" y="-24.240000000000002"/>
      <point x="236.352" y="-24.240000000000002" type="curve" smooth="yes"/>
      <point x="438.152" y="-24.240000000000002"/>
      <point x="585.928" y="106.112"/>
      <point x="585.928" y="260.712" type="curve" smooth="yes"/>
      <point x="585.928" y="334.92"/>
      <point x="552.504" y="412.496"/>
      <point x="453.20799999999997" y="514.104" type="curve" smooth="yes"/>
      <point x="353.912" y="615.712"/>
      <point x="327.456" y="664.384"/>
      <point x="327.456" y="708.384" type="curve" smooth="yes"/>
      <point x="327.456" y="766.36"/>
      <point x="360.52" y="802.12"/>
      <point x="419.888" y="802.12" type="curve" smooth="yes"/>
      <point x="457.856" y="802.12"/>
      <point x="500.672" y="771.184"/>
      <point x="537.944" y="716.792" type="curve" smooth="yes"/>
      <point x="575.216" y="662.4"/>
      <point x="592.064" y="649.856"/>
      <point x="604.216" y="649.856" type="curve" smooth="yes"/>
      <point x="661.816" y="649.856"/>
      <point x="702.872" y="687.824"/>
      <point x="702.872" y="744.0" type="curve" smooth="yes"/>
      <point x="702.872" y="821.056"/>
      <point x="638.664" y="884.72"/>
      <point x="480.224" y="884.72" type="curve" smooth="yes"/>
      <point x="277.36" y="884.72"/>
      <point x="158.61599999999999" y="760.304"/>
      <point x="158.61599999999999" y="608.192" type="curve" smooth="yes"/>
      <point x="158.61599999999999" y="523.5360000000001"/>
      <point x="194.096" y="451.448"/>
      <point x="293.576" y="357.2" type="curve" smooth="yes"/>
      <point x="393.056" y="262.952"/>
      <point x="416.056" y="215.312"/>
      <point x="416.056" y="161.552" type="curve" smooth="yes"/>
      <point x="416.056" y="92.12"/>
      <point x="364.264" y="54.480000000000004"/>
      <point x="293.168" y="54.480000000000004" type="curve" smooth="yes"/>
      <point x="252.352" y="54.480000000000004"/>
      <point x="212.536" y="75.6"/>
      <point x="168.872" y="138.568" type="curve" smooth="yes"/>
      <point x="125.208" y="201.536"/>
      <point x="111.512" y="215.992"/>
    </contour>
  </outline>
</glyph>
<glyph name="t" format="2">
  <advance width="670.504"/>
  <unicode hex="0074"/>
  <anchor x="275.728" y="0.0" name="bottom"/>
  <anchor x="668.76" y="1352.344" name="right"/>
  <outline>
    <contour>
      <point x="113.128" y="768.184" type="line"/>
      <point x="711.552" y="768.184" type="line"/>
      <point x="729.672" y="860.48" type="line"/>
      <point x="131.976" y="860.48" type="line"/>
    </contour>
    <contour>
      <point x="367.576" y="302.584" type="curve" smooth="yes"/>
      <point x="596.76" y="1061.616" type="line"/>
      <point x="375.264" y="1061.616" type="line"/>
      <point x="152.296" y="307.23199999999997" type="line" smooth="yes"/>
      <point x="127.664" y="226.03199999999998"/>
      <point x="116.424" y="160.8"/>
      <point x="116.424" y="117.592" type="curve" smooth="yes"/>
      <point x="116.424" y="11.424"/>
      <point x="164.6" y="-23.088"/>
      <point x="236.864" y="-23.088" type="curve" smooth="yes"/>
      <point x="351.4" y="-23.088"/>
      <point x="483.936" y="78.016"/>
      <point x="623.68" y="297.992" type="curve"/>
      <point x="577.744" y="330.776" type="line"/>
      <point x="485.2" y="211.2"/>
      <point x="406.552" y="149.16"/>
      <point x="367.672" y="149.16" type="curve" smooth="yes"/>
      <point x="350.704" y="149.16"/>
      <point x="340.584" y="158.736"/>
      <point x="340.584" y="183.28" type="curve" smooth="yes"/>
      <point x="340.584" y="203.096"/>
      <point x="344.15999999999997" y="230.184"/>
    </contour>
  </outline>
</glyph>
<glyph name="bar" format="2">
  <advance width="466.04"/>
  <unicode hex="007C"/>
  <outline>
    <contour>
      <point x="-106.416" y="-530.0" type="line"/>
      <point x="8.184000000000001" y="-530.0" type="line"/>
      <point x="596.184" y="1470.0" type="line"/>
      <point x="481.584" y="1470.0" type="line"/>
    </contour>
  </outline>
</glyph>
<glyph name="guillemotleft" format="2">
  <advance width="971.08"/>
  <unicode hex="00AB"/>
  <outline>
    <contour>
      <point x="266.376" y="488.888" type="line"/>
      <point x="219.43200000000002" y="336.328" type="line"/>
      <point x="616.752" y="803.872" type="line"/>
      <point x="572.272" y="851.84" type="line"/>
      <point x="65.912" y="463.84" type="line"/>
      <point x="47.28" y="402.4" type="line"/>
      <point x="320.88" y="14.4" type="line"/>
      <point x="378.784" y="40.912" type="line"/>
    </contour>
    <contour>
      <point x="666.728" y="488.888" type="line"/>
      <point x="619.784" y="336.328" type="line"/>
      <point x="1017.104" y="803.872" type="line"/>
      <point x="972.624" y="851.84" type="line"/>
      <point x="466.264" y="463.84" type="line"/>
      <point x="447.632" y="402.4" type="line"/>
      <point x="721.232" y="14.4" type="line"/>
      <point x="779.136" y="40.912" type="line"/>
    </contour>
  </outline>
</glyph>
<glyph name="logicalnot" format="2">
  <advance width="1000.0"/>
  <unicode hex="00AC"/>
  <outline>
    <contour>
      <point x="191.976" y="660.72" type="line"/>
      <point x="158.344" y="551.28" type="line"/>
      <point x="782.376" y="551.28" type="line"/>
      <point x="678.376" y="211.28" type="line"/>
      <point x="793.784" y="211.28" type="line"/>
      <point x="931.416" y="660.72" type="line"/>
    </contour>
  </outline>
</glyph>
<glyph name="registered" format="2">
  <advance width="1105.968"/>
  <unicode hex="00AE"/>
  <outline>
    <contour>
      <point x="888.36" y="749.848" type="line"/>
      <point x="859.936" y="749.848"/>
      <point x="854.056" y="755.424"/>
      <point x="852.448" y="797.304" type="curve" smooth="yes"/>
      <point x="849.96" y="863.76" type="line" smooth="yes"/>
      <point x="848.624" y="923.152"/>
      <point x="824.32" y="944.816"/>
      <point x="763.688" y="947.24" type="curve"/>
      <point x="765.928" y="940.512" type="line"/>
      <point x="883.928" y="946.696"/>
      <point x="937.624" y="993.512"/>
      <point x="937.624" y="1071.968" type="curve" smooth="yes"/>
      <point x="937.624" y="1123.0"/>
      <point x="903.744" y="1166.0"/>
      <point x="807.136" y="1166.0" type="curve" smooth="yes"/>
      <point x="663.712" y="1166.0" type="line"/>
      <point x="657.952" y="1113.488" type="line"/>
      <point x="763.992" y="1113.488" type="line" smooth="yes"/>
      <point x="805.968" y="1113.488"/>
      <point x="822.424" y="1096.032"/>
      <point x="822.424" y="1065.0" type="curve" smooth="yes"/>
      <point x="822.424" y="1006.24"/>
      <point x="786.392" y="965.272"/>
      <point x="730.056" y="965.272" type="curve" smooth="yes"/>
      <point x="610.2" y="965.272" type="line"/>
      <point x="590.896" y="910.336" type="line"/>
      <point x="696.728" y="910.336" type="line" smooth="yes"/>
      <point x="734.12" y="910.336"/>
      <point x="741.0" y="897.792"/>
      <point x="742.608" y="857.392" type="curve" smooth="yes"/>
      <point x="744.52" y="792.416" type="line" smooth="yes"/>
      <point x="744.1798620689656" y="717.8013793103448"/>
      <point x="759.576" y="706.856"/>
      <point x="877.784" y="717.424" type="curve"/>
    </contour>
    <contour>
      <point x="729.992" y="1166.0" type="line"/>
      <point x="567.216" y="1166.0" type="line"/>
      <point x="558.368" y="1137.456" type="line"/>
      <point x="603.128" y="1118.608" type="line"/>
      <point x="495.248" y="766.392" type="line"/>
      <point x="439.64" y="747.544" type="line"/>
      <point x="430.216" y="717.0" type="line"/>
      <point x="641.6" y="717.0" type="line"/>
      <point x="651.024" y="747.544" type="line"/>
      <point x="607.84" y="766.392" type="line"/>
    </contour>
    <contour>
      <point x="660.272" y="577.664" type="curve" smooth="yes"/>
      <point x="454.48" y="577.664"/>
      <point x="343.696" y="696.728"/>
      <point x="343.696" y="883.576" type="curve" smooth="yes"/>
      <point x="343.696" y="1099.664"/>
      <point x="497.664" y="1288.336"/>
      <point x="744.424" y="1288.336" type="curve" smooth="yes"/>
      <point x="950.216" y="1288.336"/>
      <point x="1061.0" y="1169.272"/>
      <point x="1061.0" y="982.424" type="curve" smooth="yes"/>
      <point x="1061.0" y="766.336"/>
      <point x="907.032" y="577.664"/>
    </contour>
    <contour>
      <point x="753.12" y="1364.24" type="curve" smooth="yes"/>
      <point x="448.816" y="1364.24"/>
      <point x="258.368" y="1133.264"/>
      <point x="258.368" y="873.456" type="curve" smooth="yes"/>
      <point x="258.368" y="654.064"/>
      <point x="401.24" y="501.76"/>
      <point x="651.576" y="501.76" type="curve" smooth="yes"/>
      <point x="955.88" y="501.76"/>
      <point x="1146.328" y="733.16"/>
      <point x="1146.328" y="992.544" type="curve" smooth="yes"/>
      <point x="1146.328" y="1211.936"/>
      <point x="1003.456" y="1364.24"/>
    </contour>
  </outline>
</glyph>
<glyph name="uni00B2" format="2">
  <advance width="696.984"/>
  <unicode hex="00B2"/>
  <outline>
    <contour>
      <point x="550.544" y="679.936" type="line"/>
      <point x="702.24" y="754.072" type="line"/>
      <point x="329.832" y="754.072" type="line"/>
      <point x="311.23199999999997" y="704.224" type="line"/>
      <point x="469.064" y="818.184" type="line" smooth="yes"/>
      <point x="724.872" y="992.984"/>
      <point x="779.256" y="1071.888"/>
      <point x="779.256" y="1179.064" type="curve" smooth="yes"/>
      <point x="779.256" y="1287.424"/>
      <point x="695.832" y="1356.544"/>
      <point x="569.568" y="1356.544" type="curve" smooth="yes"/>
      <point x="411.064" y="1356.544"/>
      <point x="305.672" y="1264.76"/>
      <point x="246.16" y="1082.616" type="curve"/>
      <point x="295.456" y="1066.832" type="line"/>
      <point x="337.152" y="1168.864"/>
      <point x="397.488" y="1206.44"/>
      <point x="475.856" y="1206.44" type="curve" smooth="yes"/>
      <point x="544.04" y="1206.44"/>
      <point x="583.224" y="1166.68"/>
      <point x="583.224" y="1104.888" type="curve" smooth="yes"/>
      <point x="583.224" y="1036.704"/>
      <point x="542.56" y="960.888"/>
      <point x="395.8" y="836.488" type="curve" smooth="yes"/>
      <point x="154.608" y="630.2" type="line"/>
      <point x="143.248" y="592.0" type="line"/>
      <point x="565.624" y="592.0" type="line"/>
      <point x="628.44" y="565.336" type="line"/>
      <point x="646.256" y="565.336" type="line"/>
      <point x="787.216" y="869.56" type="line"/>
      <point x="757.128" y="869.56" type="line"/>
    </contour>
  </outline>
</glyph>
<glyph name="guillemotright" format="2">
  <advance width="1011.32"/>
  <unicode hex="00BB"/>
  <outline>
    <contour>
      <point x="319.624" y="377.352" type="line"/>
      <point x="366.568" y="529.912" type="line"/>
      <point x="-30.752" y="62.368" type="line"/>
      <point x="13.728" y="14.4" type="line"/>
      <point x="520.088" y="402.4" type="line"/>
      <point x="538.72" y="463.84" type="line"/>
      <point x="265.12" y="851.84" type="line"/>
      <point x="207.216" y="825.328" type="line"/>
    </contour>
    <contour>
      <point x="719.976" y="377.352" type="line"/>
      <point x="766.92" y="529.912" type="line"/>
      <point x="369.6" y="62.368" type="line"/>
      <point x="414.08" y="14.4" type="line"/>
      <point x="920.44" y="402.4" type="line"/>
      <point x="939.072" y="463.84" type="line"/>
      <point x="665.472" y="851.84" type="line"/>
      <point x="607.568" y="825.328" type="line"/>
    </contour>
  </outline>
</glyph>
<glyph name="AE" format="2">
  <advance width="1936.144"/>
  <unicode hex="00C6"/>
  <anchor x="1287.792" y="1340.0" name="UCtop"/>
  <anchor x="899.816" y="0.0" name="bottom"/>
  <outline>
    <contour>
      <point x="150.272" y="91.056" type="line"/>
      <point x="1166.336" y="1254.248" type="line"/>
      <point x="1155.336" y="1260.672" type="line"/>
      <point x="799.728" y="93.208" type="line"/>
      <point x="643.664" y="40.544" type="line"/>
      <point x="631.24" y="0.0" type="line"/>
      <point x="1016.04" y="0.0" type="line"/>
      <point x="1423.312" y="1340.0" type="line"/>
      <point x="892.36" y="1340.0" type="line"/>
      <point x="879.936" y="1298.88" type="line"/>
      <point x="1026.8" y="1239.16" type="line"/>
      <point x="22.823999999999998" y="91.056" type="line"/>
      <point x="-136.936" y="40.544" type="line"/>
      <point x="-149.208" y="0.0" type="line"/>
      <point x="273.728" y="0.0" type="line"/>
      <point x="286.0" y="40.544" type="line"/>
    </contour>
    <contour>
      <point x="1633.152" y="-68.328" type="line"/>
      <point x="1659.176" y="-68.328" type="line"/>
      <point x="1880.648" y="389.68" type="line"/>
      <point x="1837.592" y="413.648" type="line"/>
      <point x="1503.432" y="73.936" type="line"/>
      <point x="1594.728" y="104.96000000000001" type="line"/>
      <point x="917.936" y="104.96000000000001" type="line"/>
      <point x="883.0" y="0.0" type="line"/>
      <point x="1532.912" y="0.0" type="line"/>
    </contour>
    <contour>
      <point x="439.96" y="467.96" type="line"/>
      <point x="986.104" y="467.96" type="line"/>
      <point x="1019.04" y="570.072" type="line"/>
      <point x="473.472" y="570.072" type="line"/>
    </contour>
    <contour>
      <point x="1487.456" y="441.0" type="line"/>
      <point x="1572.872" y="441.0" type="line"/>
      <point x="1652.872" y="703.0" type="line"/>
      <point x="1732.872" y="965.0" type="line"/>
      <point x="1647.456" y="965.0" type="line"/>
      <point x="1562.0" y="754.904" type="line"/>
      <point x="1113.544" y="754.904" type="line"/>
      <point x="1082.456" y="651.096" type="line"/>
      <point x="1530.912" y="651.096" type="line"/>
    </contour>
    <contour>
      <point x="1928.536" y="947.672" type="line"/>
      <point x="1983.744" y="947.672" type="line"/>
      <point x="2048.504" y="1400.448" type="line"/>
      <point x="2024.6" y="1400.448" type="line"/>
      <point x="1889.608" y="1340.0" type="line"/>
      <point x="1293.0" y="1340.0" type="line"/>
      <point x="1258.488" y="1235.04" type="line"/>
      <point x="1898.424" y="1235.04" type="line"/>
      <point x="1856.152" y="1267.184" type="line"/>
    </contour>
  </outline>
</glyph>
<glyph name="Dcroat" format="2">
  <advance width="1486.864"/>
  <unicode hex="0110"/>
  <outline>
    <contour>
      <point x="139.856" y="625.52" type="line"/>
      <point x="801.736" y="625.52" type="line"/>
      <point x="835.4" y="734.784" type="line"/>
      <point x="173.52" y="734.784" type="line"/>
    </contour>
    <contour>
      <point x="539.104" y="104.96000000000001" type="curve" smooth="yes"/>
      <point x="247.76" y="104.96000000000001" type="line"/>
      <point x="197.136" y="0.0" type="line"/>
      <point x="532.896" y="0.0" type="line" smooth="yes"/>
      <point x="1137.08" y="0.0"/>
      <point x="1490.4" y="370.36"/>
      <point x="1490.4" y="834.416" type="curve" smooth="yes"/>
      <point x="1490.4" y="1149.008"/>
      <point x="1306.88" y="1340.0"/>
      <point x="878.248" y="1340.0" type="curve" smooth="yes"/>
      <point x="607.136" y="1340.0" type="line"/>
      <point x="588.312" y="1235.04" type="line"/>
      <point x="805.472" y="1235.04" type="line" smooth="yes"/>
      <point x="1097.288" y="1235.04"/>
      <point x="1237.448" y="1099.032"/>
      <point x="1237.448" y="853.68" type="curve" smooth="yes"/>
      <point x="1237.448" y="407.616"/>
      <point x="965.408" y="104.96000000000001"/>
    </contour>
    <contour>
      <point x="474.376" y="1251.064" type="line"/>
      <point x="121.92" y="93.208" type="line"/>
      <point x="-34.144" y="40.544" type="line"/>
      <point x="-46.568" y="0.0" type="line"/>
      <point x="338.23199999999997" y="0.0" type="line"/>
      <point x="745.504" y="1340.0" type="line"/>
      <point x="357.128" y="1340.0" type="line"/>
      <point x="344.704" y="1299.456" type="line"/>
    </contour>
  </outline>
</glyph>
<glyph name="Hbar" format="2">
  <advance width="1562.696"/>
  <unicode hex="0126"/>
  <outline>
    <contour>
      <point x="389.168" y="631.368" type="line"/>
      <point x="1294.168" y="631.368" type="line"/>
      <point x="1325.832" y="736.328" type="line"/>
      <point x="420.832" y="736.328" type="line"/>
    </contour>
    <contour>
      <point x="237.432" y="949.76" type="line"/>
      <point x="1637.416" y="949.76" type="line"/>
      <point x="1671.08" y="1059.024" type="line"/>
      <point x="271.096" y="1059.024" type="line"/>
    </contour>
    <contour>
      <point x="472.68" y="1251.064" type="line"/>
      <point x="120.224" y="93.208" type="line"/>
      <point x="-35.84" y="40.544" type="line"/>
      <point x="-48.263999999999996" y="0.0" type="line"/>
      <point x="480.48" y="0.0" type="line"/>
      <point x="492.904" y="40.544" type="line"/>
      <point x="363.23199999999997" y="88.936" type="line"/>
      <point x="715.688" y="1246.792" type="line"/>
      <point x="871.752" y="1299.456" type="line"/>
      <point x="884.176" y="1340.0" type="line"/>
      <point x="355.432" y="1340.0" type="line"/>
      <point x="343.008" y="1299.456" type="line"/>
    </contour>
    <contour>
      <point x="1345.344" y="1251.064" type="line"/>
      <point x="992.888" y="93.208" type="line"/>
      <point x="836.824" y="40.544" type="line"/>
      <point x="824.4" y="0.0" type="line"/>
      <point x="1353.144" y="0.0" type="line"/>
      <point x="1365.568" y="40.544" type="line"/>
      <point x="1235.896" y="88.936" type="line"/>
      <point x="1588.352" y="1246.792" type="line"/>
      <point x="1744.416" y="1299.456" type="line"/>
      <point x="1756.84" y="1340.0" type="line"/>
      <point x="1228.096" y="1340.0" type="line"/>
      <point x="1215.672" y="1299.456" type="line"/>
    </contour>
  </outline>
</glyph>
<glyph name="oe" format="2">
  <advance width="1391.672"/>
  <unicode hex="0153"/>
  <anchor x="830.888" y="860.48" name="top"/>
  <anchor x="606.08" y="0.0" name="bottom"/>
  <outline>
    <contour>
      <point x="565.16" y="884.72" type="curve" smooth="yes"/>
      <point x="280.536" y="884.72"/>
      <point x="53.944" y="615.648"/>
      <point x="53.944" y="297.44" type="curve" smooth="yes"/>
      <point x="53.944" y="99.29599999999999"/>
      <point x="165.24" y="-24.240000000000002"/>
      <point x="363.672" y="-24.240000000000002" type="curve" smooth="yes"/>
      <point x="501.328" y="-24.240000000000002"/>
      <point x="631.896" y="42.456"/>
      <point x="722.144" y="157.368" type="curve"/>
      <point x="654.56" y="160.248" type="line"/>
      <point x="689.528" y="40.304"/>
      <point x="782.856" y="-24.240000000000002"/>
      <point x="917.632" y="-24.240000000000002" type="curve" smooth="yes"/>
      <point x="1090.376" y="-24.240000000000002"/>
      <point x="1197.576" y="48.848"/>
      <point x="1305.904" y="306.952" type="curve"/>
      <point x="1245.664" y="306.952" type="line"/>
      <point x="1170.848" y="170.584"/>
      <point x="1099.0" y="131.16"/>
      <point x="1001.792" y="131.16" type="curve" smooth="yes"/>
      <point x="910.4" y="131.16"/>
      <point x="849.976" y="182.16"/>
      <point x="849.976" y="317.192" type="curve" smooth="yes"/>
      <point x="849.976" y="526.032"/>
      <point x="954.488" y="800.76"/>
      <point x="1110.208" y="800.76" type="curve" smooth="yes"/>
      <point x="1160.184" y="800.76"/>
      <point x="1186.4" y="768.696"/>
      <point x="1186.4" y="717.088" type="curve" smooth="yes"/>
      <point x="1186.4" y="619.88"/>
      <point x="1118.576" y="550.144"/>
      <point x="806.056" y="451.936" type="curve"/>
      <point x="803.056" y="371.88" type="line"/>
      <point x="977.44" y="417.792"/>
      <point x="1157.456" y="476.064"/>
      <point x="1311.608" y="540.64" type="curve"/>
      <point x="1351.456" y="579.0"/>
      <point x="1378.456" y="642.424"/>
      <point x="1378.456" y="703.24" type="curve" smooth="yes"/>
      <point x="1378.456" y="801.568"/>
      <point x="1311.4" y="884.72"/>
      <point x="1143.84" y="884.72" type="curve" smooth="yes"/>
      <point x="1005.944" y="884.72"/>
      <point x="850.888" y="807.568"/>
      <point x="766.312" y="679.536" type="curve"/>
      <point x="835.68" y="676.656" type="line"/>
      <point x="810.928" y="802.84"/>
      <point x="723.848" y="884.72"/>
    </contour>
    <contour>
      <point x="363.552" y="59.72" type="curve" smooth="yes"/>
      <point x="299.20799999999997" y="59.72"/>
      <point x="269.568" y="103.456"/>
      <point x="269.568" y="213.344" type="curve" smooth="yes"/>
      <point x="269.568" y="478.16"/>
      <point x="421.992" y="800.76"/>
      <point x="565.28" y="800.76" type="curve" smooth="yes"/>
      <point x="629.624" y="800.76"/>
      <point x="659.264" y="757.024"/>
      <point x="659.264" y="647.136" type="curve" smooth="yes"/>
      <point x="659.264" y="382.32"/>
      <point x="506.84" y="59.72"/>
    </contour>
  </outline>
</glyph>
<glyph name="tbar" format="2">
  <advance width="688.808"/>
  <unicode hex="0167"/>
  <outline>
    <contour>
      <point x="75.4" y="476.032" type="line"/>
      <point x="626.704" y="476.032" type="line"/>
      <point x="658.064" y="577.232" type="line"/>
      <point x="106.184" y="577.232" type="line"/>
    </contour>
    <contour>
      <point x="127.432" y="768.184" type="line"/>
      <point x="725.856" y="768.184" type="line"/>
      <point x="743.976" y="860.48" type="line"/>
      <point x="146.28" y="860.48" type="line"/>
    </contour>
    <contour>
      <point x="354.888" y="183.28" type="curve" smooth="yes"/>
      <point x="354.888" y="203.096"/>
      <point x="358.464" y="230.184"/>
      <point x="381.88" y="302.584" type="curve" smooth="yes"/>
      <point x="611.064" y="1061.616" type="line"/>
      <point x="389.568" y="1061.616" type="line"/>
      <point x="166.6" y="307.23199999999997" type="line" smooth="yes"/>
      <point x="141.968" y="226.03199999999998"/>
      <point x="130.728" y="160.8"/>
      <point x="130.728" y="117.592" type="curve" smooth="yes"/>
      <point x="130.728" y="11.424"/>
      <point x="178.904" y="-23.088"/>
      <point x="251.168" y="-23.088" type="curve" smooth="yes"/>
      <point x="365.704" y="-23.088"/>
      <point x="498.24" y="78.016"/>
      <point x="637.984" y="297.992" type="curve"/>
      <point x="592.048" y="330.776" type="line"/>
      <point x="499.504" y="211.2"/>
      <point x="420.856" y="149.16"/>
      <point x="381.976" y="149.16" type="curve" smooth="yes"/>
      <point x="365.008" y="149.16"/>
      <point x="354.888" y="158.736"/>
    </contour>
  </outline>
</glyph>
<glyph name="uni02B9" format="2">
  <advance width="395.752"/>
  <unicode hex="02B9"/>
  <outline>
    <contour>
      <point x="192.32" y="827.928" type="line"/>
      <point x="278.824" y="827.928" type="line"/>
      <point x="618.288" y="1295.248" type="line"/>
      <point x="631.68" y="1340.0" type="line"/>
      <point x="382.504" y="1340.0" type="line"/>
    </contour>
  </outline>
</glyph>
<glyph name="gravecomb" format="2">
  <unicode hex="0300"/>
  <anchor x="131.272" y="860.48" name="_top"/>
  <anchor x="277.152" y="1340.0" name="top"/>
  <outline>
    <contour>
      <point x="229.912" y="1009.0" type="line"/>
      <point x="176.544" y="1340.0" type="line"/>
      <point x="-46.983999999999995" y="1340.0" type="line"/>
      <point x="-52.496" y="1311.128" type="line"/>
      <point x="159.736" y="1009.0" type="line"/>
    </contour>
  </outline>
</glyph>
<glyph name="uni0304" format="2">
  <unicode hex="0304"/>
  <anchor x="131.272" y="860.48" name="_top"/>
  <anchor x="277.152" y="1340.0" name="top"/>
  <outline>
    <contour>
      <point x="-40.96" y="1115.248" type="line"/>
      <point x="459.904" y="1115.248" type="line"/>
      <point x="496.416" y="1234.752" type="line"/>
      <point x="-4.448" y="1234.752" type="line"/>
    </contour>
  </outline>
</glyph>
<glyph name="uni0307" format="2">
  <unicode hex="0307"/>
  <anchor x="131.272" y="860.48" name="_top"/>
  <anchor x="227.728" y="1175.0" name="_mid"/>
  <anchor x="251.152" y="1255.0" name="top"/>
  <outline>
    <contour>
      <point x="227.728" y="1043.16" type="curve" smooth="yes"/>
      <point x="306.632" y="1043.16"/>
      <point x="360.992" y="1100.096"/>
      <point x="360.992" y="1174.576" type="curve" smooth="yes"/>
      <point x="360.992" y="1249.056"/>
      <point x="306.632" y="1306.84"/>
      <point x="227.728" y="1306.84" type="curve" smooth="yes"/>
      <point x="148.824" y="1306.84"/>
      <point x="94.464" y="1249.056"/>
      <point x="94.464" y="1174.576" type="curve" smooth="yes"/>
      <point x="94.464" y="1100.096"/>
      <point x="148.824" y="1043.16"/>
    </contour>
  </outline>
</glyph>
<glyph name="uni0308" format="2">
  <unicode hex="0308"/>
  <anchor x="131.272" y="860.48" name="_top"/>
  <anchor x="251.152" y="1255.0" name="top"/>
  <outline>
    <contour>
      <point x="36.344" y="1052.008" type="curve" smooth="yes"/>
      <point x="109.824" y="1052.008"/>
      <point x="160.336" y="1106.944"/>
      <point x="160.336" y="1174.576" type="curve" smooth="yes"/>
      <point x="160.336" y="1243.056"/>
      <point x="109.824" y="1297.992"/>
      <point x="36.344" y="1297.992" type="curve" smooth="yes"/>
      <point x="-36.712" y="1297.992"/>
      <point x="-87.648" y="1243.056"/>
      <point x="-87.648" y="1174.576" type="curve" smooth="yes"/>
      <point x="-87.648" y="1106.944"/>
      <point x="-36.712" y="1052.008"/>
    </contour>
    <contour>
      <point x="417.112" y="1052.008" type="curve" smooth="yes"/>
      <point x="490.592" y="1052.008"/>
      <point x="541.104" y="1106.944"/>
      <point x="541.104" y="1174.576" type="curve" smooth="yes"/>
      <point x="541.104" y="1243.056"/>
      <point x="490.592" y="1297.992"/>
      <point x="417.112" y="1297.992" type="curve" smooth="yes"/>
      <point x="344.056" y="1297.992"/>
      <point x="293.12" y="1243.056"/>
      <point x="293.12" y="1174.576" type="curve" smooth="yes"/>
      <point x="293.12" y="1106.944"/>
      <point x="344.056" y="1052.008"/>
    </contour>
  </outline>
</glyph>
<glyph name="uni030A" format="2">
  <unicode hex="030A"/>
  <anchor x="131.272" y="860.48" name="_top"/>
  <anchor x="280.032" y="1345.76" name="top"/>
  <outline>
    <contour>
      <point x="239.824" y="1356.36" type="curve" smooth="yes"/>
      <point x="119.76" y="1356.36"/>
      <point x="40.64" y="1269.296"/>
      <point x="40.64" y="1159.6" type="curve" smooth="yes"/>
      <point x="40.64" y="1059.968"/>
      <point x="112.272" y="992.792"/>
      <point x="213.904" y="992.792" type="curve" smooth="yes"/>
      <point x="333.968" y="992.792"/>
      <point x="413.088" y="1080.704"/>
      <point x="413.088" y="1189.552" type="curve" smooth="yes"/>
      <point x="413.088" y="1290.032"/>
      <point x="341.456" y="1356.36"/>
    </contour>
    <contour>
      <point x="217.936" y="1058.456" type="curve" smooth="yes"/>
      <point x="152.816" y="1058.456"/>
      <point x="110.88" y="1099.816"/>
      <point x="110.88" y="1165.936" type="curve" smooth="yes"/>
      <point x="110.88" y="1236.056"/>
      <point x="160.88" y="1292.392"/>
      <point x="235.792" y="1292.392" type="curve" smooth="yes"/>
      <point x="300.912" y="1292.392"/>
      <point x="342.848" y="1251.032"/>
      <point x="342.848" y="1183.216" type="curve" smooth="yes"/>
      <point x="342.848" y="1114.792"/>
      <point x="292.848" y="1058.456"/>
    </contour>
  </outline>
</glyph>
<glyph name="uni030F" format="2">
  <unicode hex="030F"/>
  <anchor x="131.272" y="860.48" name="_top"/>
  <anchor x="277.728" y="1340.0" name="top"/>
  <outline>
    <contour>
      <point x="113.816" y="1009.0" type="line"/>
      <point x="70.784" y="1340.0" type="line"/>
      <point x="-144.656" y="1340.0" type="line"/>
      <point x="-150.59199999999998" y="1311.128" type="line"/>
      <point x="40.792" y="1009.0" type="line"/>
    </contour>
    <contour>
      <point x="356.656" y="1009.0" type="line"/>
      <point x="402.432" y="1340.0" type="line"/>
      <point x="185.48" y="1340.0" type="line"/>
      <point x="181.24" y="1316.216" type="line"/>
      <point x="288.696" y="1009.0" type="line"/>
    </contour>
  </outline>
</glyph>
<glyph name="uni0312" format="2">
  <unicode hex="0312"/>
  <anchor x="131.272" y="860.48" name="_top"/>
  <anchor x="280.336" y="1351.52" name="top"/>
  <outline>
    <contour>
      <point x="339.776" y="1128.144" type="curve" smooth="yes"/>
      <point x="339.776" y="1151.176"/>
      <point x="241.2" y="1156.872"/>
      <point x="241.2" y="1208.96" type="curve" smooth="yes"/>
      <point x="241.2" y="1245.84"/>
      <point x="266.776" y="1289.296"/>
      <point x="400.056" y="1314.328" type="curve"/>
      <point x="407.176" y="1375.264" type="line"/>
      <point x="155.792" y="1337.688"/>
      <point x="77.672" y="1233.992"/>
      <point x="77.672" y="1118.632" type="curve" smooth="yes"/>
      <point x="77.672" y="1042.544"/>
      <point x="120.672" y="998.576"/>
      <point x="197.152" y="998.576" type="curve" smooth="yes"/>
      <point x="277.96" y="998.576"/>
      <point x="339.776" y="1059.448"/>
    </contour>
  </outline>
</glyph>
<glyph name="dotbelowcomb" format="2">
  <unicode hex="0323"/>
  <anchor x="-131.272" y="0.0" name="_bottom"/>
  <anchor x="-293.272" y="-530.0" name="bottom"/>
  <outline>
    <contour>
      <point x="-208.848" y="-384.72" type="curve" smooth="yes"/>
      <point x="-129.944" y="-384.72"/>
      <point x="-75.584" y="-327.784"/>
      <point x="-75.584" y="-253.304" type="curve" smooth="yes"/>
      <point x="-75.584" y="-178.824"/>
      <point x="-129.944" y="-121.03999999999999"/>
      <point x="-208.848" y="-121.03999999999999" type="curve" smooth="yes"/>
      <point x="-287.752" y="-121.03999999999999"/>
      <point x="-342.112" y="-178.824"/>
      <point x="-342.112" y="-253.304" type="curve" smooth="yes"/>
      <point x="-342.112" y="-327.784"/>
      <point x="-287.752" y="-384.72"/>
    </contour>
  </outline>
</glyph>
<glyph name="uni0324" format="2">
  <unicode hex="0324"/>
  <anchor x="-131.272" y="0.0" name="_bottom"/>
  <anchor x="-291.544" y="-530.0" name="bottom"/>
  <outline>
    <contour>
      <point x="-397.504" y="-375.872" type="curve" smooth="yes"/>
      <point x="-324.024" y="-375.872"/>
      <point x="-273.512" y="-320.936"/>
      <point x="-273.512" y="-253.304" type="curve" smooth="yes"/>
      <point x="-273.512" y="-184.824"/>
      <point x="-324.024" y="-129.888"/>
      <point x="-397.504" y="-129.888" type="curve" smooth="yes"/>
      <point x="-470.56" y="-129.888"/>
      <point x="-521.496" y="-184.824"/>
      <point x="-521.496" y="-253.304" type="curve" smooth="yes"/>
      <point x="-521.496" y="-320.936"/>
      <point x="-470.56" y="-375.872"/>
    </contour>
    <contour>
      <point x="-16.736" y="-375.872" type="curve" smooth="yes"/>
      <point x="56.744" y="-375.872"/>
      <point x="107.256" y="-320.936"/>
      <point x="107.256" y="-253.304" type="curve" smooth="yes"/>
      <point x="107.256" y="-184.824"/>
      <point x="56.744" y="-129.888"/>
      <point x="-16.736" y="-129.888" type="curve" smooth="yes"/>
      <point x="-89.792" y="-129.888"/>
      <point x="-140.728" y="-184.824"/>
      <point x="-140.728" y="-253.304" type="curve" smooth="yes"/>
      <point x="-140.728" y="-320.936"/>
      <point x="-89.792" y="-375.872"/>
    </contour>
  </outline>
</glyph>
<glyph name="quoteleft" format="2">
  <advance width="478.168"/>
  <unicode hex="2018"/>
  <outline>
    <contour>
      <point x="662.624" y="1288.792" type="curve"/>
      <point x="637.264" y="1355.936" type="line"/>
      <point x="323.856" y="1230.0"/>
      <point x="237.768" y="1097.128"/>
      <point x="237.768" y="945.016" type="curve" smooth="yes"/>
      <point x="237.768" y="855.504"/>
      <point x="288.888" y="809.448"/>
      <point x="367.24" y="809.448" type="curve" smooth="yes"/>
      <point x="467.896" y="809.448"/>
      <point x="534.312" y="881.408"/>
      <point x="534.312" y="965.736" type="curve" smooth="yes"/>
      <point x="534.312" y="998.944"/>
      <point x="423.32" y="1007.968"/>
      <point x="423.32" y="1087.696" type="curve" smooth="yes"/>
      <point x="423.32" y="1148.336"/>
      <point x="480.2" y="1210.64"/>
    </contour>
  </outline>
</glyph>
<glyph name="uni27E9" format="2">
  <advance width="1000.0"/>
  <unicode hex="27E9"/>
  <outline>
    <contour>
      <point x="792.184" y="722.504" type="line"/>
      <point x="53.008" y="0.0" type="line"/>
      <point x="199.048" y="0.0" type="line"/>
      <point x="884.416" y="660.76" type="line"/>
      <point x="889.96" y="680.24" type="line"/>
      <point x="576.688" y="1340.0" type="line"/>
      <point x="462.008" y="1340.0" type="line"/>
      <point x="774.704" y="658.152" type="line"/>
    </contour>
  </outline>
</glyph>
<glyph name="dollar.lf.1" format="2">
  <advance width="1016.952"/>
  <outline>
    <contour>
      <point x="421.512" y="72.688" type="curve" smooth="yes"/>
      <point x="210.51999999999998" y="72.688"/>
      <point x="222.784" y="253.504"/>
      <point x="108.176" y="253.504" type="curve" smooth="yes"/>
      <point x="53.576" y="253.504"/>
      <point x="14.792" y="215.72"/>
      <point x="14.792" y="150.816" type="curve" smooth="yes"/>
      <point x="14.792" y="55.728"/>
      <point x="128.344" y="-24.240000000000002"/>
      <point x="386.328" y="-24.240000000000002" type="curve" smooth="yes"/>
      <point x="716.136" y="-24.240000000000002"/>
      <point x="936.68" y="161.608"/>
      <point x="936.68" y="439.752" type="curve" smooth="yes"/>
      <point x="936.68" y="839.0"/>
      <point x="426.368" y="752.8453927436177"/>
      <point x="426.368" y="1032.112" type="curve" smooth="yes"/>
      <point x="426.368" y="1176.944"/>
      <point x="518.896" y="1270.704"/>
      <point x="699.744" y="1270.704" type="curve" smooth="yes"/>
      <point x="913.704" y="1270.704"/>
      <point x="896.352" y="1087.768"/>
      <point x="1013.504" y="1087.768" type="curve" smooth="yes"/>
      <point x="1068.528" y="1087.768"/>
      <point x="1110.28" y="1125.128"/>
      <point x="1110.28" y="1190.032" type="curve" smooth="yes"/>
      <point x="1110.28" y="1283.0"/>
      <point x="997.152" y="1364.24"/>
      <point x="750.192" y="1364.24" type="curve" smooth="yes"/>
      <point x="421.552" y="1364.24"/>
      <point x="247.096" y="1183.888"/>
      <point x="247.096" y="948.688" type="curve" smooth="yes"/>
      <point x="247.096" y="553.776"/>
      <point x="754.984" y="651.888"/>
      <point x="754.984" y="357.56" type="curve" smooth="yes"/>
      <point x="754.984" y="180.88"/>
      <point x="638.064" y="72.688"/>
    </contour>
    <contour>
      <point x="715.968" y="1301.912" type="line"/>
      <point x="787.24" y="1535.0" type="line"/>
      <point x="695.912" y="1535.0" type="line"/>
      <point x="624.64" y="1301.912" type="line"/>
    </contour>
    <contour>
      <point x="904.264" y="1301.912" type="line"/>
      <point x="975.536" y="1535.0" type="line"/>
      <point x="884.632" y="1535.0" type="line"/>
      <point x="813.36" y="1301.912" type="line"/>
    </contour>
    <contour>
      <point x="254.296" y="31.272" type="line"/>
      <point x="184.872" y="-195.0" type="line"/>
      <point x="275.776" y="-195.0" type="line"/>
      <point x="345.2" y="31.272" type="line"/>
    </contour>
    <contour>
      <point x="442.592" y="31.272" type="line"/>
      <point x="373.168" y="-195.0" type="line"/>
      <point x="464.072" y="-195.0" type="line"/>
      <point x="533.496" y="31.272" type="line"/>
    </contour>
  </outline>
</glyph>
<glyph name="sterling.lf" format="2">
  <advance width="1121.496"/>
  <outline>
    <contour>
      <point x="949.408" y="717.48" type="line"/>
      <point x="172.672" y="717.48" type="line"/>
      <point x="145.16" y="627.672" type="line"/>
      <point x="921.896" y="627.672" type="line"/>
    </contour>
    <contour>
      <point x="270.79200000000003" y="210.32" type="line"/>
      <point x="241.624" y="152.84" type="line"/>
      <point x="527.704" y="363.672"/>
      <point x="614.808" y="526.04"/>
      <point x="614.808" y="624.712" type="curve" smooth="yes"/>
      <point x="614.808" y="730.872"/>
      <point x="553.696" y="810.584"/>
      <point x="553.696" y="941.568" type="curve" smooth="yes"/>
      <point x="553.696" y="1072.552"/>
      <point x="628.16" y="1185.704"/>
      <point x="812.5840000000001" y="1185.704" type="curve" smooth="yes"/>
      <point x="962.296" y="1185.704"/>
      <point x="1042.088" y="1103.816"/>
      <point x="1066.936" y="927.224" type="curve"/>
      <point x="1136.32" y="931.888" type="line"/>
      <point x="1127.08" y="1207.672"/>
      <point x="1004.968" y="1364.24"/>
      <point x="762.04" y="1364.24" type="curve" smooth="yes"/>
      <point x="458.392" y="1364.24"/>
      <point x="298.848" y="1170.696"/>
      <point x="298.848" y="950.576" type="curve" smooth="yes"/>
      <point x="298.848" y="755.464"/>
      <point x="412.968" y="673.16"/>
      <point x="412.968" y="538.648" type="curve" smooth="yes"/>
      <point x="412.968" y="418.26392123313093"/>
      <point x="354.18734968864817" y="313.5991156307612"/>
      <point x="18.848" y="29.816" type="curve"/>
      <point x="10.848" y="0.0" type="line"/>
      <point x="722.08" y="0.0" type="line"/>
      <point x="821.4159999999999" y="-35.96" type="line"/>
      <point x="846.168" y="-35.96" type="line"/>
      <point x="1053.696" y="419.024" type="line"/>
      <point x="1008.4" y="419.024" type="line"/>
      <point x="707.568" y="146.59199999999998" type="line"/>
      <point x="884.92" y="210.32" type="line"/>
    </contour>
  </outline>
</glyph>
<glyph name="uni0302_acutecomb" format="2">
  <anchor x="131.272" y="860.48" name="_top"/>
  <outline>
    <contour>
      <point x="468.808" y="1209.0" type="line"/>
      <point x="542.04" y="1209.0" type="line"/>
      <point x="868.312" y="1454.792" type="line"/>
      <point x="872.976" y="1480.0" type="line"/>
      <point x="630.712" y="1480.0" type="line"/>
    </contour>
    <contour>
      <point x="-107.744" y="1009.0" type="line"/>
      <point x="-11.424" y="1009.0" type="line"/>
      <point x="286.896" y="1216.968" type="line"/>
      <point x="221.344" y="1216.968" type="line"/>
      <point x="388.728" y="1009.0" type="line"/>
      <point x="461.624" y="1009.0" type="line"/>
      <point x="367.448" y="1340.0" type="line"/>
      <point x="188.432" y="1340.0" type="line"/>
    </contour>
  </outline>
</glyph>
<glyph name="uni030B.case" format="2">
  <anchor x="277.728" y="1340.0" name="_UCtop"/>
  <anchor x="392.728" y="1716.0" name="UCtop"/>
  <outline>
    <contour>
      <point x="393.584" y="1476.0" type="line"/>
      <point x="472.968" y="1476.0" type="line"/>
      <point x="839.336" y="1689.552" type="line"/>
      <point x="844.848" y="1716.0" type="line"/>
      <point x="604.496" y="1716.0" type="line"/>
    </contour>
    <contour>
      <point x="152.864" y="1476.0" type="line"/>
      <point x="218.704" y="1476.0" type="line"/>
      <point x="487.288" y="1693.368" type="line"/>
      <point x="491.528" y="1716.0" type="line"/>
      <point x="270.328" y="1716.0" type="line"/>
    </contour>
  </outline>
</glyph>
<glyph name="uni20B1.lf" format="2">
  <advance width="1314.28"/>
  <outline>
    <contour>
      <point x="1347.248" y="833.728" type="line"/>
      <point x="232.792" y="833.728" type="line"/>
      <point x="205.28" y="743.92" type="line"/>
      <point x="1319.736" y="743.92" type="line"/>
    </contour>
    <contour>
      <point x="1431.912" y="1108.992" type="line"/>
      <point x="317.456" y="1108.992" type="line"/>
      <point x="289.944" y="1019.184" type="line"/>
      <point x="1404.4" y="1019.184" type="line"/>
    </contour>
    <contour>
      <point x="543.064" y="1247.792" type="line"/>
      <point x="189.728" y="91.784" type="line"/>
      <point x="12.672" y="39.12" type="line"/>
      <point x="1.248000000000001" y="0.0" type="line"/>
      <point x="557.976" y="0.0" type="line"/>
      <point x="569.4" y="39.12" type="line"/>
      <point x="426.312" y="91.784" type="line"/>
      <point x="807.768" y="1340.0" type="line"/>
      <point x="410.248" y="1340.0" type="line"/>
      <point x="398.824" y="1300.456" type="line"/>
    </contour>
    <contour>
      <point x="707.472" y="614.872" type="curve" smooth="yes"/>
      <point x="517.792" y="614.872" type="line"/>
      <point x="401.304" y="518.608" type="line"/>
      <point x="702.984" y="518.608" type="line" smooth="yes"/>
      <point x="1066.552" y="518.608"/>
      <point x="1240.784" y="750.52"/>
      <point x="1240.784" y="1056.096" type="curve" smooth="yes"/>
      <point x="1240.784" y="1217.848"/>
      <point x="1158.0" y="1340.0"/>
      <point x="912.3679999999999" y="1340.0" type="curve" smooth="yes"/>
      <point x="653.152" y="1340.0" type="line"/>
      <point x="707.312" y="1243.312" type="line"/>
      <point x="856.4159999999999" y="1243.312" type="line" smooth="yes"/>
      <point x="970.64" y="1243.312"/>
      <point x="1025.616" y="1201.52"/>
      <point x="1025.616" y="1084.208" type="curve" smooth="yes"/>
      <point x="1025.616" y="828.432"/>
      <point x="905.608" y="614.872"/>
    </contour>
  </outline>
</glyph>
<glyph name="uni20B9.lf" format="2">
  <advance width="1146.736"/>
  <outline>
    <contour>
      <point x="1222.84" y="1033.632" type="line"/>
      <point x="284.52" y="1033.632" type="line"/>
      <point x="257.584" y="943.824" type="line"/>
      <point x="1195.328" y="943.824" type="line"/>
    </contour>
    <contour>
      <point x="1010.912" y="1032.432" type="curve" smooth="yes"/>
      <point x="1010.912" y="1142.28"/>
      <point x="945.976" y="1235.008"/>
      <point x="791.624" y="1257.888" type="curve"/>
      <point x="791.624" y="1250.192" type="line"/>
      <point x="1289.208" y="1250.192" type="line"/>
      <point x="1316.72" y="1340.0" type="line"/>
      <point x="377.976" y="1340.0" type="line"/>
      <point x="349.736" y="1245.008" type="line"/>
      <point x="588.608" y="1245.008" type="line" smooth="yes"/>
      <point x="718.384" y="1245.008"/>
      <point x="777.936" y="1193.728"/>
      <point x="777.936" y="1088.024" type="curve" smooth="yes"/>
      <point x="777.936" y="894.624"/>
      <point x="659.2" y="722.208"/>
      <point x="457.368" y="722.208" type="curve" smooth="yes"/>
      <point x="189.096" y="722.208" type="line"/>
      <point x="160.432" y="625.52" type="line"/>
      <point x="393.072" y="625.52" type="line" smooth="yes"/>
      <point x="478.8" y="625.52"/>
      <point x="499.072" y="604.432"/>
      <point x="520.5360000000001" y="492.152" type="curve" smooth="yes"/>
      <point x="576.288" y="194.528" type="line" smooth="yes"/>
      <point x="602.088" y="-2.023999999999999"/>
      <point x="652.744" y="-25.6"/>
      <point x="925.448" y="0.0" type="curve"/>
      <point x="944.568" y="63.632" type="line"/>
      <point x="847.48" y="62.632"/>
      <point x="827.784" y="82.176"/>
      <point x="811.504" y="183.38400000000001" type="curve" smooth="yes"/>
      <point x="760.088" y="445.464" type="line" smooth="yes"/>
      <point x="731.712" y="608.616"/>
      <point x="683.992" y="670.84"/>
      <point x="544.232" y="686.296" type="curve"/>
      <point x="536.448" y="675.024" type="line"/>
      <point x="860.16" y="699.304"/>
      <point x="1010.912" y="839.64"/>
    </contour>
  </outline>
</glyph>
